<svg fill="none" xmlns="http://www.w3.org/2000/svg" width="8.5em" height="2.89em" viewBox="0 0 113.779 38.8565" version="1.1" aria-labelledby="digdir-logo-title"><title id="digdir-logo-title">Altinn</title><g id="surface1"><path d="M 20.917969 28.097656 C 14.890625 29.082031 9.78125 23.96875 10.761719 17.941406 C 11.355469 14.296875 14.296875 11.355469 17.941406 10.761719 C 23.96875 9.78125 29.082031 14.890625 28.097656 20.917969 C 27.503906 24.5625 24.5625 27.503906 20.917969 28.097656 M 19.730469 7.0625 L 7.5625 7.0625 C 7.289063 7.0625 7.0625 7.289063 7.0625 7.5625 L 7.0625 31.296875 C 7.0625 31.574219 7.289063 31.796875 7.5625 31.796875 L 19.730469 31.796875 C 26.417969 31.644531 31.796875 26.164063 31.796875 19.429688 C 31.796875 12.695313 26.417969 7.214844 19.730469 7.0625 " style="stroke: none; fill-rule: nonzero; fill: rgb(0, 98, 184); fill-opacity: 1;"></path><path d="M 46.734375 22.441406 L 52.929688 22.441406 C 53.03125 22.441406 53.066406 22.398438 53.035156 22.3125 L 50.109375 13.164063 C 50.0625 13.042969 49.972656 12.984375 49.839844 12.984375 C 49.710938 12.984375 49.628906 13.015625 49.59375 13.082031 L 46.632813 22.226563 C 46.601563 22.371094 46.632813 22.441406 46.734375 22.441406 M 48.464844 10.664063 L 51.769531 10.664063 C 51.839844 10.664063 51.894531 10.675781 51.941406 10.703125 L 57.753906 28.0625 C 57.789063 28.199219 57.742188 28.265625 57.621094 28.265625 L 55.03125 28.265625 C 54.980469 28.265625 54.933594 28.226563 54.898438 28.144531 L 53.753906 24.566406 L 46.058594 24.566406 C 45.988281 24.566406 45.941406 24.53125 45.90625 24.46875 L 44.746094 28.058594 C 44.714844 28.195313 44.679688 28.265625 44.632813 28.265625 L 42.539063 28.265625 C 42.4375 28.265625 42.390625 28.222656 42.40625 28.144531 L 48.304688 10.785156 C 48.339844 10.703125 48.394531 10.664063 48.464844 10.664063 " style="stroke: none; fill-rule: nonzero; fill: rgb(30, 43, 60); fill-opacity: 1;"></path><path d="M 62.550781 10.785156 L 62.550781 28.140625 C 62.550781 28.222656 62.507813 28.265625 62.429688 28.265625 L 60.304688 28.265625 C 60.222656 28.265625 60.175781 28.222656 60.171875 28.140625 L 60.171875 10.785156 C 60.171875 10.703125 60.214844 10.664063 60.304688 10.664063 L 62.429688 10.664063 C 62.507813 10.664063 62.550781 10.703125 62.550781 10.785156 " style="stroke: none; fill-rule: nonzero; fill: rgb(30, 43, 60); fill-opacity: 1;"></path><path d="M 72.621094 26.261719 L 72.621094 28.144531 C 72.621094 28.222656 72.574219 28.265625 72.488281 28.265625 L 70.570313 28.265625 C 68.390625 28.3125 67.292969 27.328125 67.285156 25.3125 L 67.285156 17.621094 C 67.285156 17.539063 67.246094 17.492188 67.164063 17.484375 L 64.941406 17.484375 C 64.859375 17.484375 64.820313 17.445313 64.820313 17.363281 L 64.820313 15.742188 C 64.820313 15.660156 64.859375 15.617188 64.941406 15.617188 L 67.164063 15.617188 C 67.246094 15.617188 67.285156 15.574219 67.285156 15.484375 L 67.285156 12.113281 C 67.285156 12.035156 67.332031 11.992188 67.421875 11.992188 L 69.542969 11.992188 C 69.625 11.992188 69.667969 12.035156 69.667969 12.113281 L 69.667969 15.484375 C 69.667969 15.566406 69.707031 15.609375 69.789063 15.617188 L 72.488281 15.617188 C 72.566406 15.617188 72.613281 15.660156 72.621094 15.742188 L 72.621094 17.363281 C 72.621094 17.445313 72.574219 17.484375 72.488281 17.484375 L 69.789063 17.484375 C 69.707031 17.484375 69.667969 17.53125 69.667969 17.621094 L 69.667969 24.894531 C 69.667969 25.726563 70.117188 26.140625 71.023438 26.140625 L 72.488281 26.140625 C 72.574219 26.140625 72.621094 26.183594 72.621094 26.261719 " style="stroke: none; fill-rule: nonzero; fill: rgb(30, 43, 60); fill-opacity: 1;"></path><path d="M 77.539063 15.742188 L 77.539063 28.140625 C 77.539063 28.222656 77.5 28.265625 77.417969 28.265625 L 75.28125 28.265625 C 75.203125 28.265625 75.160156 28.222656 75.160156 28.140625 L 75.160156 15.742188 C 75.160156 15.660156 75.203125 15.617188 75.28125 15.617188 L 77.417969 15.617188 C 77.5 15.617188 77.539063 15.660156 77.539063 15.742188 M 77.796875 10.785156 L 77.796875 13.410156 C 77.796875 13.492188 77.75 13.535156 77.664063 13.542969 L 75.039063 13.542969 C 74.957031 13.542969 74.914063 13.5 74.914063 13.410156 L 74.914063 10.785156 C 74.914063 10.703125 74.957031 10.664063 75.039063 10.664063 L 77.664063 10.664063 C 77.75 10.664063 77.796875 10.703125 77.796875 10.785156 " style="stroke: none; fill-rule: nonzero; fill: rgb(30, 43, 60); fill-opacity: 1;"></path><path d="M 81.105469 15.617188 L 82.984375 15.617188 C 83.035156 15.617188 83.074219 15.660156 83.105469 15.742188 L 83.363281 16.863281 C 83.386719 16.929688 83.433594 16.960938 83.496094 16.960938 C 83.5625 16.960938 83.609375 16.9375 83.644531 16.886719 C 84.375 15.871094 85.460938 15.363281 86.910156 15.363281 C 88.640625 15.363281 89.980469 15.914063 90.933594 17.023438 C 91.882813 18.128906 92.359375 19.546875 92.359375 21.269531 L 92.359375 28.140625 C 92.359375 28.222656 92.316406 28.265625 92.226563 28.265625 L 90.101563 28.265625 C 90.019531 28.265625 89.980469 28.222656 89.980469 28.140625 L 89.980469 21.269531 C 89.980469 20.203125 89.714844 19.304688 89.1875 18.574219 C 88.652344 17.847656 87.847656 17.488281 86.773438 17.488281 C 85.703125 17.488281 84.867188 17.855469 84.265625 18.597656 C 83.664063 19.335938 83.363281 20.226563 83.363281 21.269531 L 83.363281 28.140625 C 83.363281 28.222656 83.320313 28.265625 83.242188 28.265625 L 81.105469 28.265625 C 81.023438 28.265625 80.984375 28.222656 80.984375 28.140625 L 80.984375 15.742188 C 80.984375 15.660156 81.023438 15.617188 81.105469 15.617188 " style="stroke: none; fill-rule: nonzero; fill: rgb(30, 43, 60); fill-opacity: 1;"></path><path d="M 95.421875 15.617188 L 97.304688 15.617188 C 97.351563 15.617188 97.394531 15.660156 97.425781 15.742188 L 97.683594 16.863281 C 97.707031 16.929688 97.75 16.960938 97.816406 16.960938 C 97.878906 16.960938 97.929688 16.9375 97.960938 16.886719 C 98.695313 15.871094 99.78125 15.363281 101.226563 15.363281 C 102.960938 15.363281 104.300781 15.914063 105.25 17.023438 C 106.203125 18.128906 106.679688 19.546875 106.679688 21.269531 L 106.679688 28.140625 C 106.679688 28.222656 106.632813 28.265625 106.542969 28.265625 L 104.421875 28.265625 C 104.339844 28.265625 104.296875 28.222656 104.296875 28.140625 L 104.296875 21.269531 C 104.296875 20.203125 104.035156 19.304688 103.507813 18.574219 C 102.96875 17.847656 102.164063 17.488281 101.09375 17.488281 C 100.023438 17.488281 99.183594 17.855469 98.582031 18.597656 C 97.984375 19.335938 97.683594 20.226563 97.683594 21.269531 L 97.683594 28.140625 C 97.683594 28.222656 97.640625 28.265625 97.558594 28.265625 L 95.421875 28.265625 C 95.34375 28.265625 95.300781 28.222656 95.300781 28.140625 L 95.300781 15.742188 C 95.300781 15.660156 95.339844 15.617188 95.421875 15.617188 " style="stroke: none; fill-rule: nonzero; fill: rgb(30, 43, 60); fill-opacity: 1;"></path></g></svg>
