<svg xmlns="http://www.w3.org/2000/svg" viewBox="0 0 5689 1024" width="568.9" height="102.4">
  <g transform="translate(0,960) scale(1,-1)">
    <path d="M708.551 955.814c-67.942 0-131.846-12.942-191.698-38.825-61.472-25.883-114.856-61.472-160.152-106.768-43.678-45.296-79.267-97.871-106.768-157.725-25.883-59.855-38.824-124.563-38.824-194.123 0-67.945 12.942-132.651 38.824-194.125 27.501-59.853 63.090-112.43 106.768-157.724 45.296-45.295 98.679-80.885 160.152-106.769 59.852-25.879 123.756-38.821 191.698-38.821 69.558 0 134.269 12.942 194.122 38.821 61.474 25.884 114.045 61.474 157.724 106.769 45.295 45.295 80.885 97.872 106.769 157.724 25.884 61.474 38.827 126.18 38.827 194.125 0 69.56-12.942 134.269-38.827 194.123s-61.474 112.43-106.769 157.725c-43.679 45.296-96.25 80.885-157.724 106.768-59.853 25.883-124.564 38.825-194.122 38.825zM708.551 909.71c124.558 0 230.519-44.487 317.878-133.46 88.969-87.355 133.456-193.314 133.456-317.876 0-32.354-3.231-63.9-9.705-94.638-6.468-29.116-16.179-58.237-29.116-87.353v2.423h-31.545c-163.391 11.327-265.301 49.34-305.744 114.051-40.442 64.707-46.108 126.988-16.987 186.843 16.174 37.207 46.103 55.81 89.782 55.81 43.674 1.618 65.513 2.426 65.513 2.426-121.327 50.149-219.193 43.678-293.609-19.412-74.414-61.472-138.313-126.989-191.697-196.549-25.883-32.355-53.384-61.471-82.503-87.355-27.501-25.884-46.913-43.679-58.237-53.385-11.324 27.5-20.221 55.808-26.692 84.929-6.471 30.737-9.706 61.472-9.706 92.208 0 124.562 43.678 230.521 131.033 317.876 88.973 88.973 194.93 133.46 317.878 133.46zM247.507 972.8c-76.031-61.472-136.695-136.695-181.99-225.668-43.678-87.356-65.517-182.799-65.517-286.332 0-101.916 21.839-197.359 65.517-286.333 45.296-87.353 105.959-162.577 181.99-225.667-50.149 67.942-92.208 145.59-126.18 232.949-32.354 87.353-48.531 180.372-48.531 279.051s16.177 191.697 48.531 279.052c33.972 87.356 76.031 165.005 126.18 232.948zM1419.526 460.8c0 103.533-22.647 198.976-67.942 286.332-43.679 88.973-103.532 164.196-179.564 225.668 50.148-67.943 91.398-145.592 123.756-232.948 33.968-87.355 50.955-180.372 50.955-279.052s-16.987-191.698-50.955-279.051c-32.358-87.359-73.609-165.006-123.756-232.949 76.032 63.090 135.885 138.314 179.564 225.667 45.295 88.974 67.942 184.417 67.942 286.333zM1734.975 703.454h162.583c59.853 0 100.295-12.942 121.327-38.824 22.647-24.265 33.968-55.002 33.968-92.208 0-21.030-5.66-40.443-16.987-58.237-9.705-17.795-23.455-30.736-41.25-38.825 22.647-6.471 40.442-20.221 53.385-41.251s19.41-45.296 19.41-72.796c0-40.442-12.129-74.416-36.398-101.916-22.647-27.5-65.513-41.25-128.603-41.25h-167.435v485.308zM1899.981 637.937h-92.206v-135.886h94.635c29.116 0 48.526 7.28 58.237 21.839 9.705 14.56 14.558 29.119 14.558 43.678 0 16.177-4.853 31.545-14.558 46.104-8.090 16.177-28.314 24.265-60.666 24.265zM1807.775 286.089h97.058c33.974 0 56.622 7.282 67.942 21.84 11.327 16.179 16.987 34.782 16.987 55.808 0 24.269-6.468 42.871-19.41 55.813-12.942 14.56-34.782 21.839-65.519 21.839h-97.058v-155.299zM2251.827 487.492c-21.026 0-40.442-2.426-58.237-7.28-16.174-3.235-30.731-7.28-43.674-12.133v63.090c12.942 6.471 29.116 11.324 48.532 14.559 19.41 3.235 38.821 4.853 58.231 4.853 51.769 0 86.551-10.515 104.346-31.545s26.692-49.34 26.692-84.929v-215.962h-43.679l-12.134 26.692c-12.942-11.327-28.308-20.224-46.103-26.692-16.179-4.853-33.161-7.282-50.955-7.282-42.064 0-71.179 10.519-87.359 31.545-16.174 22.647-24.263 46.916-24.263 72.801 0 33.968 10.513 59.045 31.545 75.218 21.026 16.179 50.148 25.885 87.353 29.12l72.795 7.28v14.56c0 17.794-4.853 29.927-14.558 36.398s-25.884 9.706-48.532 9.706zM2246.975 368.589c-16.174-1.616-29.116-6.468-38.821-14.558-8.090-6.468-12.134-18.603-12.134-36.398 0-11.321 3.237-21.84 9.705-31.545 6.474-9.705 19.41-14.558 38.827-14.558 14.558 0 26.692 1.616 36.398 4.853 11.321 3.237 22.647 8.090 33.968 14.558v84.929l-67.942-7.282zM2666.769 485.065c-3.237 0-8.090 0-14.558 0-6.474 1.618-12.942 2.426-19.416 2.426-19.41 0-36.398-2.426-50.955-7.28-14.558-3.235-25.884-7.28-33.974-12.133v-249.933h-70.366v325.156h41.25l12.134-26.692c11.321 9.706 25.879 17.795 43.674 24.265s37.211 9.706 58.237 9.706c6.474 0 12.134-0.809 16.987-2.427 6.468 0 12.134-0.808 16.987-2.426v-60.663zM2848.757 550.582c56.622 0 92.211-16.177 106.769-48.531 16.179-32.354 24.263-71.179 24.263-116.475 0-4.853 0-10.513 0-16.987 0-4.853-0.808-9.705-2.423-14.558h-201.404c1.616-24.263 8.090-43.674 19.41-58.237 11.327-14.558 33.166-21.84 65.519-21.84 21.032 0 39.634 1.621 55.808 4.853 17.795 3.237 33.974 8.090 48.532 14.564v-63.090c-19.41-6.474-38.821-11.327-58.237-14.564-19.41-3.231-38.013-4.853-55.808-4.853-55 0-93.827 15.371-116.474 46.108-21.032 30.731-31.545 71.987-31.545 123.75 0 51.767 10.513 93.018 31.545 123.754 22.647 30.736 60.661 46.104 114.045 46.104zM2775.962 404.99h131.032c0 21.030-3.231 39.633-9.705 55.81-4.853 17.795-21.032 26.692-48.532 26.692s-46.103-8.088-55.808-24.265c-9.705-14.559-15.371-33.971-16.987-58.237zM3261.269 218.146v223.242c0 16.177-4.045 28.31-12.134 36.398-8.084 8.088-21.026 12.133-38.821 12.133-16.179 0-30.737-2.427-43.679-7.28-11.321-3.236-21.84-7.28-31.545-12.133v-252.36h-70.372v325.156h41.256l12.129-26.692c16.179 11.324 33.166 19.412 50.961 24.265 17.795 6.471 35.59 9.706 53.385 9.706 42.058 0 71.174-9.706 87.353-29.119 16.179-17.795 24.263-42.869 24.263-75.222v-228.095h-72.795zM3598.558 215.717c-4.853-1.616-11.321-3.231-19.41-4.853-8.090 0-15.366 0-21.84 0-35.59 0-63.090 8.090-82.5 24.269-19.416 16.174-29.121 42.058-29.121 77.648v167.431h-60.661v46.104l60.661 16.986v75.222l70.372 21.839v-97.062h92.206v-63.090h-92.206v-160.15c0-16.179 4.045-28.314 12.134-36.398 9.705-6.474 23.455-9.711 41.25-9.711 6.468 0 12.129 0 16.987 0 4.853 0 8.897 0.814 12.129 2.429v-60.666zM3795.109 412.269c48.532-3.235 80.885-12.943 97.064-29.117 16.174-14.564 24.263-37.211 24.263-67.942 0-27.506-9.705-51.769-29.116-72.801-19.416-21.026-55.006-31.545-106.769-31.545-22.647 0-43.679 1.621-63.090 4.853-19.416 4.858-33.974 8.897-43.679 12.134v63.090c9.705-3.237 22.647-7.276 38.827-12.134 17.795-4.853 36.398-7.276 55.808-7.276 25.884 0 45.295 3.237 58.237 9.705s19.41 16.987 19.41 31.545c0 11.327-4.045 20.224-12.129 26.692-6.474 6.468-20.224 11.327-41.256 14.558-48.526 3.237-80.885 12.134-97.058 26.692-16.179 16.179-24.269 38.017-24.269 65.518 0 29.118 9.711 53.383 29.121 72.796 19.41 21.030 53.385 31.545 101.916 31.545 21.026 0 39.629-1.618 55.808-4.853 16.179-1.618 30.737-5.662 43.679-12.133v-63.090c-12.942 6.471-27.5 11.324-43.679 14.559s-34.782 4.853-55.808 4.853c-17.795 0-32.358-3.235-43.679-9.706-11.327-6.471-16.987-16.986-16.987-31.545 0-11.324 3.237-19.412 9.705-24.265 8.090-4.853 22.647-8.897 43.679-12.133zM4185.782 703.454h89.782l82.5-380.968 63.090 380.968h77.653l-92.211-490.16h-87.353l-89.782 405.232-87.359-405.232h-87.353l-92.211 490.16h77.653l63.090-380.968 82.5 380.968zM4639.545 487.492c-21.032 0-40.442-2.426-58.237-7.28-16.179-3.235-30.737-7.28-43.679-12.133v63.090c12.942 6.471 29.121 11.324 48.532 14.559s38.827 4.853 58.237 4.853c53.385 0 88.166-10.515 104.34-31.545 17.795-21.030 26.692-49.34 26.692-84.929v-215.962h-43.674l-12.134 26.692c-12.942-11.327-28.308-20.224-46.103-26.692-16.179-4.853-33.166-7.282-50.961-7.282-42.058 0-71.179 10.519-87.353 31.545-16.179 22.647-24.269 46.916-24.269 72.801 0 33.968 10.519 59.045 31.545 75.218 21.032 16.179 50.153 25.885 87.359 29.12l72.795 7.28v14.56c0 17.794-4.853 29.927-14.558 36.398s-25.884 9.706-48.532 9.706zM4634.692 368.589c-16.179-1.616-29.121-6.468-38.827-14.558-8.084-6.468-12.129-18.603-12.129-36.398 0-11.321 3.231-21.84 9.705-31.545 6.468-9.705 19.41-14.558 38.821-14.558 14.564 0 27.506 1.616 38.827 4.853 11.327 3.237 21.84 8.090 31.545 14.558v84.929l-67.942-7.282zM5030.218 215.717c-6.468-1.616-13.75-3.231-21.84-4.853-6.468 0-12.942 0-19.41 0-35.59 0-63.898 8.090-84.929 24.269-19.41 16.174-29.121 42.058-29.121 77.648v167.431h-58.237v46.104l58.237 16.986v75.222l72.801 21.839v-97.062h92.206v-63.090h-92.206v-160.15c0-16.179 4.045-28.314 12.129-36.398 9.711-6.474 23.461-9.711 41.256-9.711 4.853 0 9.705 0 14.558 0s9.705 0.814 14.558 2.429v-60.666zM5234.045 276.383c19.416 0 35.59 0.808 48.532 2.423 12.942 3.237 25.077 7.282 36.398 12.134v-63.090c-12.942-6.468-26.692-11.321-41.25-14.558-14.558-1.616-30.737-2.429-48.532-2.429-56.616 0-95.442 15.371-116.474 46.108-21.026 32.353-31.545 73.603-31.545 123.75 0 50.149 10.519 90.592 31.545 121.328 21.032 32.354 59.858 48.531 116.474 48.531 17.795 0 33.974-1.618 48.532-4.853 14.558-1.618 28.308-5.662 41.25-12.133v-63.090c-11.321 4.853-23.455 8.088-36.398 9.706-12.942 3.235-29.116 4.853-48.532 4.853-30.731 0-51.763-9.706-63.090-29.119-11.321-19.412-16.981-44.487-16.981-75.224s5.66-55.808 16.981-75.224c11.327-19.41 32.358-29.116 63.090-29.116zM5527.66 489.919c-16.179 0-30.737-2.427-43.679-7.28-11.321-3.236-21.84-7.28-31.545-12.133v-252.36h-72.795v485.308h72.795v-177.137c12.942 8.088 26.692 13.75 41.25 16.986 14.558 4.853 29.929 7.28 46.103 7.28 40.442 0 68.756-9.706 84.929-29.119 17.795-17.795 26.692-42.869 26.692-75.222v-228.095h-72.795v223.242c0 16.177-4.045 28.31-12.134 36.398-8.084 8.088-21.026 12.133-38.821 12.133z" fill="#012048"/>
  </g>
</svg>