<svg width="126" height="18" fill="none" xmlns="http://www.w3.org/2000/svg"><path d="M29.064.812h8.604c3.383 0 4.712 1.798 4.712 4.014 0 2.413-1.522 3.57-3.214 3.89 1.934.321 3.456 1.503 3.456 4.04 0 2.684-1.74 4.432-5.123 4.432h-8.435V.812zm7.54 6.846c1.837 0 2.562-.788 2.562-2.241 0-1.404-.58-2.167-2.344-2.167h-4.664v4.408h4.447zm.339 7.092c1.788 0 2.44-1.083 2.44-2.413 0-1.552-.797-2.487-2.779-2.487h-4.446v4.9h4.785zM48.636 3.324H43.2V.812h13.944v2.512H51.73v13.864h-3.094V3.324zM23.578.812v13.812H16.88v2.564h6.696a3.07 3.07 0 003.07-3.07V3.881a3.07 3.07 0 00-3.07-3.07zm58.796 16.376h-3.069V3.053l-4.568 14.135h-3.794l-4.568-14.16v14.16h-3.093V.812h5.341l4.253 13.175L77.154.812h5.22v16.376zm1.802-3.214c0-1.934.918-3.214 3.818-3.698l2.949-.507c1.136-.194 1.595-.532 1.595-1.305 0-.967-.532-1.595-2.393-1.595-1.812 0-2.658.725-2.755 2.078h-2.948c.048-2.562 2.078-4.254 5.63-4.254 3.505 0 5.221 1.547 5.221 3.94v5.607c0 1.015.048 1.86.145 2.948h-2.659a23.209 23.209 0 01-.169-2.658c-.507 1.595-1.909 2.972-4.422 2.972-2.441 0-4.012-1.353-4.012-3.528zm4.882 1.377c2.199 0 3.48-1.643 3.48-3.963v-.653c-.653.484-1.33.653-2.079.822l-1.329.314c-1.401.339-1.982.846-1.982 1.861 0 1.064.798 1.62 1.91 1.62zm15.745-4.229c0-3.528 2.005-6.404 6.307-6.404 4.205 0 6.042 2.851 6.042 6.283 0 .339 0 .653-.048.943h-9.377c.217 2.682 1.547 3.504 3.456 3.504 1.885 0 2.779-.822 3.117-1.91h2.828c-.29 1.813-1.716 4.037-6.018 4.037-4.519 0-6.307-2.973-6.307-6.453zm9.473-1.16c-.121-2.127-1.16-3.142-3.142-3.142-1.885 0-3.093.774-3.359 3.142h6.501zm7.736 4.662V.812a3.07 3.07 0 00-3.069 3.07v10.237a3.07 3.07 0 003.07 3.07h3.986v-2.565h-3.987zm-21.969-9.528a2.564 2.564 0 00-2.564 2.564v9.528h2.804V7.66h4.232V5.096h-4.472zM5.371 9.252H0V6.183h5.371v3.07zm8.44-3.069h-5.37v3.07h5.37v-3.07zM5.372.812v2.302a3.07 3.07 0 003.07 3.07V.811H5.37zm3.07 8.44a3.07 3.07 0 00-3.07 3.07v2.302h3.07V9.252z" fill="#145BFF"/></svg>