<svg xmlns="http://www.w3.org/2000/svg" viewBox="0 0 1000 800" width="100%" height="100%">
  <defs>
    <style>
      .logo-fill { fill: #000000; }
    </style>
  </defs>
  
  <g class="logo-fill">
    <!-- Symbol (Parametric Dot Grid) -->
    <g id="symbol">
      <!-- Row -5 -->
      <circle cx="245.0" cy="115.0" r="10.0" />
      <circle cx="290.4" cy="120.4" r="9.28" />
      <circle cx="339.2" cy="125.8" r="8.72" />
      <circle cx="391.0" cy="131.2" r="8.32" />
      <circle cx="445.4" cy="136.6" r="8.08" />
      <circle cx="500.0" cy="142.0" r="8.0" />
      <circle cx="554.6" cy="136.6" r="8.08" />
      <circle cx="609.0" cy="131.2" r="8.32" />
      <circle cx="660.8" cy="125.8" r="8.72" />
      <circle cx="709.6" cy="120.4" r="9.28" />
      <circle cx="755.0" cy="115.0" r="10.0" />
      
      <!-- Row -4 -->
      <circle cx="272.0" cy="151.6" r="9.28" />
      <circle cx="310.4" cy="155.6" r="8.56" />
      <circle cx="351.8" cy="159.6" r="8.0" />
      <circle cx="396.4" cy="163.6" r="7.6" />
      <circle cx="444.2" cy="167.6" r="7.36" />
      <circle cx="500.0" cy="171.6" r="7.28" />
      <circle cx="555.8" cy="167.6" r="7.36" />
      <circle cx="603.6" cy="163.6" r="7.6" />
      <circle cx="648.2" cy="159.6" r="8.0" />
      <circle cx="689.6" cy="155.6" r="8.56" />
      <circle cx="728.0" cy="151.6" r="9.28" />

      <!-- Row -3 -->
      <circle cx="297.5" cy="190.6" r="8.72" />
      <circle cx="328.4" cy="193.4" r="8.0" />
      <circle cx="363.2" cy="196.2" r="7.44" />
      <circle cx="400.6" cy="199.0" r="7.04" />
      <circle cx="440.6" cy="201.8" r="6.8" />
      <circle cx="500.0" cy="204.6" r="6.72" />
      <circle cx="559.4" cy="201.8" r="6.8" />
      <circle cx="599.4" cy="199.0" r="7.04" />
      <circle cx="636.8" cy="196.2" r="7.44" />
      <circle cx="671.6" cy="193.4" r="8.0" />
      <circle cx="702.5" cy="190.6" r="8.72" />

      <!-- Row -2 -->
      <circle cx="320.0" cy="232.0" r="8.32" />
      <circle cx="344.0" cy="233.6" r="7.6" />
      <circle cx="371.6" cy="235.2" r="7.04" />
      <circle cx="402.4" cy="236.8" r="6.64" />
      <circle cx="435.8" cy="238.4" r="6.4" />
      <circle cx="500.0" cy="240.0" r="6.32" />
      <circle cx="564.2" cy="238.4" r="6.4" />
      <circle cx="597.6" cy="236.8" r="6.64" />
      <circle cx="628.4" cy="235.2" r="7.04" />
      <circle cx="656.0" cy="233.6" r="7.6" />
      <circle cx="680.0" cy="232.0" r="8.32" />

      <!-- Row -1 -->
      <circle cx="337.5" cy="272.5" r="8.08" />
      <circle cx="356.4" cy="273.1" r="7.36" />
      <circle cx="378.2" cy="273.7" r="6.8" />
      <circle cx="403.6" cy="274.3" r="6.4" />
      <circle cx="431.4" cy="274.9" r="6.16" />
      <circle cx="500.0" cy="275.5" r="6.08" />
      <circle cx="568.6" cy="274.9" r="6.16" />
      <circle cx="596.4" cy="274.3" r="6.4" />
      <circle cx="621.8" cy="273.7" r="6.8" />
      <circle cx="643.6" cy="273.1" r="7.36" />
      <circle cx="662.5" cy="272.5" r="8.08" />

      <!-- Row 0 (Center) -->
      <circle cx="345.0" cy="310.0" r="8.0" />
      <circle cx="360.0" cy="310.0" r="7.28" />
      <circle cx="380.0" cy="310.0" r="6.72" />
      <circle cx="404.0" cy="310.0" r="6.32" />
      <circle cx="431.0" cy="310.0" r="6.08" />
      <circle cx="500.0" cy="310.0" r="6.0" />
      <circle cx="569.0" cy="310.0" r="6.08" />
      <circle cx="596.0" cy="310.0" r="6.32" />
      <circle cx="620.0" cy="310.0" r="6.72" />
      <circle cx="640.0" cy="310.0" r="7.28" />
      <circle cx="655.0" cy="310.0" r="8.0" />

      <!-- Row 1 -->
      <circle cx="337.5" cy="347.5" r="8.08" />
      <circle cx="356.4" cy="346.9" r="7.36" />
      <circle cx="378.2" cy="346.3" r="6.8" />
      <circle cx="403.6" cy="345.7" r="6.4" />
      <circle cx="431.4" cy="345.1" r="6.16" />
      <circle cx="500.0" cy="344.5" r="6.08" />
      <circle cx="568.6" cy="345.1" r="6.16" />
      <circle cx="596.4" cy="345.7" r="6.4" />
      <circle cx="621.8" cy="346.3" r="6.8" />
      <circle cx="643.6" cy="346.9" r="7.36" />
      <circle cx="662.5" cy="347.5" r="8.08" />

      <!-- Row 2 -->
      <circle cx="320.0" cy="388.0" r="8.32" />
      <circle cx="344.0" cy="386.4" r="7.6" />
      <circle cx="371.6" cy="384.8" r="7.04" />
      <circle cx="402.4" cy="383.2" r="6.64" />
      <circle cx="435.8" cy="381.6" r="6.4" />
      <circle cx="500.0" cy="380.0" r="6.32" />
      <circle cx="564.2" cy="381.6" r="6.4" />
      <circle cx="597.6" cy="383.2" r="6.64" />
      <circle cx="628.4" cy="384.8" r="7.04" />
      <circle cx="656.0" cy="386.4" r="7.6" />
      <circle cx="680.0" cy="388.0" r="8.32" />

      <!-- Row 3 -->
      <circle cx="297.5" cy="429.4" r="8.72" />
      <circle cx="328.4" cy="426.6" r="8.0" />
      <circle cx="363.2" cy="423.8" r="7.44" />
      <circle cx="400.6" cy="421.0" r="7.04" />
      <circle cx="440.6" cy="418.2" r="6.8" />
      <circle cx="500.0" cy="415.4" r="6.72" />
      <circle cx="559.4" cy="418.2" r="6.8" />
      <circle cx="599.4" cy="421.0" r="7.04" />
      <circle cx="636.8" cy="423.8" r="7.44" />
      <circle cx="671.6" cy="426.6" r="8.0" />
      <circle cx="702.5" cy="429.4" r="8.72" />

      <!-- Row 4 -->
      <circle cx="272.0" cy="468.4" r="9.28" />
      <circle cx="310.4" cy="464.4" r="8.56" />
      <circle cx="351.8" cy="460.4" r="8.0" />
      <circle cx="396.4" cy="456.4" r="7.6" />
      <circle cx="444.2" cy="452.4" r="7.36" />
      <circle cx="500.0" cy="448.4" r="7.28" />
      <circle cx="555.8" cy="452.4" r="7.36" />
      <circle cx="603.6" cy="456.4" r="7.6" />
      <circle cx="648.2" cy="460.4" r="8.0" />
      <circle cx="689.6" cy="464.4" r="8.56" />
      <circle cx="728.0" cy="468.4" r="9.28" />

      <!-- Row 5 -->
      <circle cx="245.0" cy="505.0" r="10.0" />
      <circle cx="290.4" cy="499.6" r="9.28" />
      <circle cx="339.2" cy="494.2" r="8.72" />
      <circle cx="391.0" cy="488.8" r="8.32" />
      <circle cx="445.4" cy="483.4" r="8.08" />
      <circle cx="500.0" cy="478.0" r="8.0" />
      <circle cx="554.6" cy="483.4" r="8.08" />
      <circle cx="609.0" cy="488.8" r="8.32" />
      <circle cx="660.8" cy="494.2" r="8.72" />
      <circle cx="709.6" cy="499.6" r="9.28" />
      <circle cx="755.0" cy="505.0" r="10.0" />
    </g>

    <!-- NORDHAV Text Paths -->
    <g id="nordhav">
      <path d="M 165 650 V 550 H 183 L 217 610 V 550 H 235 V 650 H 217 L 183 590 V 650 Z" />
      <path d="M 295 550 C 317 550 335 572 335 600 C 335 628 317 650 295 650 C 273 650 255 628 255 600 C 255 572 273 550 295 550 Z M 295 568 C 307 568 317 582 317 600 C 317 618 307 632 295 632 C 283 632 273 618 273 600 C 273 582 283 568 295 568 Z" />
      <path d="M 355 650 V 550 H 400 C 420 550 430 560 430 580 C 430 595 420 605 405 608 L 430 650 H 410 L 387 610 H 373 V 650 Z M 373 592 H 400 C 410 592 412 588 412 580 C 412 572 410 568 400 568 H 373 Z" />
      <path d="M 450 650 V 550 H 495 C 525 550 530 575 530 600 C 530 625 525 650 495 650 Z M 468 632 H 495 C 510 632 512 615 512 600 C 512 585 510 568 495 568 H 468 Z" />
      <path d="M 550 650 V 550 H 568 V 591 H 602 V 550 H 620 V 650 H 602 V 609 H 568 V 650 Z" />
      <path d="M 675 550 L 640 650 H 660 L 670 620 H 700 L 710 650 H 730 L 695 550 Z M 685 575 L 675 605 H 695 Z" />
      <path d="M 750 550 H 770 L 800 630 L 830 550 H 850 L 810 650 H 790 Z" />
    </g>

    <!-- AQUACULTURE AS Text Paths -->
    <g id="aquaculture_as" transform="translate(165, 680) scale(0.35)">
      <!-- A -->
      <path transform="translate(0, 0)" d="M 20 0 L 0 100 H 12 L 18 70 H 38 L 44 100 H 56 L 36 0 Z M 28 25 L 21 60 H 35 Z" />
      <!-- Q -->
      <path transform="translate(130, 0)" d="M 30 0 C 10 0 0 15 0 50 C 0 85 10 100 30 100 C 50 100 60 85 60 50 C 60 15 50 0 30 0 Z M 30 12 C 45 12 48 25 48 50 C 48 75 45 88 30 88 C 15 88 12 75 12 50 C 12 25 15 12 30 12 Z M 40 85 L 65 110 L 55 115 L 35 95 Z" />
      <!-- U -->
      <path transform="translate(265, 0)" d="M 0 0 V 70 C 0 95 10 100 25 100 C 40 100 50 95 50 70 V 0 H 38 V 70 C 38 85 35 88 25 88 C 15 88 12 85 12 70 V 0 Z" />
      <!-- A -->
      <path transform="translate(390, 0)" d="M 20 0 L 0 100 H 12 L 18 70 H 38 L 44 100 H 56 L 36 0 Z M 28 25 L 21 60 H 35 Z" />
      <!-- C -->
      <path transform="translate(520, 0)" d="M 45 15 C 35 0 15 0 5 15 C -5 35 -5 65 5 85 C 15 100 35 100 45 85 L 38 75 C 30 88 15 88 8 75 C 0 60 0 40 8 25 C 15 12 30 12 38 25 Z" />
      <!-- U -->
      <path transform="translate(640, 0)" d="M 0 0 V 70 C 0 95 10 100 25 100 C 40 100 50 95 50 70 V 0 H 38 V 70 C 38 85 35 88 25 88 C 15 88 12 85 12 70 V 0 Z" />
      <!-- L -->
      <path transform="translate(765, 0)" d="M 0 0 V 100 H 40 V 88 H 12 V 0 Z" />
      <!-- T -->
      <path transform="translate(880, 0)" d="M 0 0 H 50 V 12 H 31 V 100 H 19 V 12 H 0 Z" />
      <!-- U -->
      <path transform="translate(1005, 0)" d="M 0 0 V 70 C 0 95 10 100 25 100 C 40 100 50 95 50 70 V 0 H 38 V 70 C 38 85 35 88 25 88 C 15 88 12 85 12 70 V 0 Z" />
      <!-- R -->
      <path transform="translate(1130, 0)" d="M 0 0 V 100 H 12 V 60 H 25 L 40 100 H 54 L 38 60 C 50 55 52 40 45 25 C 40 10 25 0 10 0 Z M 12 12 H 25 C 35 12 38 20 38 30 C 38 40 35 48 25 48 H 12 Z" />
      <!-- E -->
      <path transform="translate(1260, 0)" d="M 0 0 V 100 H 45 V 88 H 12 V 55 H 35 V 43 H 12 V 12 H 45 V 0 Z" />
      
      <!-- Space starts at 1305, width ~150 -->
      
      <!-- A -->
      <path transform="translate(1455, 0)" d="M 20 0 L 0 100 H 12 L 18 70 H 38 L 44 100 H 56 L 36 0 Z M 28 25 L 21 60 H 35 Z" />
      <!-- S -->
      <path transform="translate(1585, 0)" d="M 40 20 C 35 5 15 5 10 15 C 5 25 15 30 25 35 C 40 42 45 55 40 70 C 35 90 10 90 5 75 L 15 68 C 20 80 30 80 30 70 C 30 60 20 55 10 50 C -5 42 -5 20 10 10 C 25 -2 45 2 48 12 Z" />
    </g>
  </g>
</svg>
